<svg xmlns="http://www.w3.org/2000/svg" viewBox="0 0 64 64" role="img" aria-labelledby="title">
  <title>Da Mystro Gamings monogram</title>
  <rect width="64" height="64" fill="#080807"/>
  <rect x="5" y="5" width="54" height="54" fill="none" stroke="#d6a84b" stroke-width="2"/>
  <path d="M17 43V20h9c7 0 11 4 11 11.5S33 43 26 43h-9Zm6-5h3c4 0 5.5-2.3 5.5-6.5S30 25 26 25h-3v13Zm18 5V20h6l6 10 6-10h6v23h-6V31l-5 8h-2l-5-8v12h-6Z" fill="#f0ce78"/>
  <path d="M23 14h18l-4 5H27l-4-5Z" fill="#0b6048"/>
</svg>
