<svg xmlns="http://www.w3.org/2000/svg" viewBox="0 0 960 540" role="img" aria-labelledby="title desc">
  <title id="title">Ethiopian tricolor flag with Lion of Judah-inspired mark</title>
  <desc id="desc">A modern Ethiopian green, yellow, and red flag with a golden lion crest at the center.</desc>
  <defs>
    <linearGradient id="sun" x1="0" x2="1" y1="0" y2="1">
      <stop offset="0" stop-color="#fff4a8"/>
      <stop offset="0.48" stop-color="#f5c84f"/>
      <stop offset="1" stop-color="#b87416"/>
    </linearGradient>
    <radialGradient id="glow" cx="50%" cy="44%" r="45%">
      <stop offset="0" stop-color="#fff8d2" stop-opacity="0.85"/>
      <stop offset="0.55" stop-color="#f5c84f" stop-opacity="0.28"/>
      <stop offset="1" stop-color="#3d290a" stop-opacity="0"/>
    </radialGradient>
    <filter id="softShadow" x="-20%" y="-20%" width="140%" height="140%">
      <feDropShadow dx="0" dy="10" stdDeviation="12" flood-color="#1c1508" flood-opacity="0.32"/>
    </filter>
  </defs>

  <rect width="960" height="180" fill="#078930"/>
  <rect y="180" width="960" height="180" fill="#fcd116"/>
  <rect y="360" width="960" height="180" fill="#da121a"/>
  <path d="M0 0h960v540H0z" fill="url(#glow)"/>
  <path d="M0 0h960v540H0z" fill="#0c0a05" opacity="0.1"/>

  <g filter="url(#softShadow)">
    <circle cx="480" cy="270" r="138" fill="#10251d" opacity="0.9"/>
    <circle cx="480" cy="270" r="124" fill="none" stroke="url(#sun)" stroke-width="12"/>
    <circle cx="480" cy="270" r="98" fill="none" stroke="#f6dc75" stroke-width="2" opacity="0.75"/>

    <g fill="url(#sun)">
      <path d="M474 142l14 48 35-35-7 49 47-16-27 42 51 6-43 27 43 27-51 6 27 42-47-16 7 49-35-35-14 48-14-48-35 35 7-49-47 16 27-42-51-6 43-27-43-27 51-6-27-42 47 16-7-49 35 35z" opacity="0.32"/>
      <path d="M403 296c20 26 52 43 91 43h74c14 0 25-11 25-25v-10h-79c-32 0-52-14-60-38l-6-19-36 15c-17 7-25 23-21 34z"/>
      <path d="M363 301c36-4 65-24 83-54l15-25 42 18-17 30c-28 50-71 76-125 79z"/>
      <path d="M434 210c9-34 36-60 70-66 21-4 41 0 58 10-20 5-32 17-36 35 19 1 34 9 45 23-24-4-42 2-54 18 15 5 26 16 33 32-23-11-45-12-65-1-20 10-36 27-49 50-11-36-12-70-2-101z"/>
      <path d="M531 187c-14 11-22 26-23 44 11-10 27-15 46-14-16 12-24 27-24 46 12-10 28-15 48-12-21 15-33 34-34 59l-49-12c-9-40 3-77 36-111z"/>
      <path d="M603 305c19-6 31-18 36-36 2-8 1-15-2-22 18 8 29 23 30 41 1 27-22 51-62 62z"/>
      <path d="M456 331h34l-16 58h-36z"/>
      <path d="M529 331h35l15 58h-36z"/>
      <path d="M360 354c-10 19-18 39-24 61l30 4c6-18 15-34 26-50z"/>
      <path d="M574 155l15-37 18 7-16 38z"/>
      <path d="M598 118l17-9 9 17-17 9z"/>
    </g>

    <path d="M402 293c25 29 57 45 95 46h71" fill="none" stroke="#fff0a8" stroke-linecap="round" stroke-width="8" opacity="0.52"/>
    <circle cx="511" cy="214" r="7" fill="#1b1609"/>
  </g>
</svg>
